<svg id="Layer_1" data-name="Layer 1" xmlns="http://www.w3.org/2000/svg" viewBox="0 0 74.9 85.73"><defs><style>.cls-1{fill:#fff;}</style></defs><path class="cls-1" d="M36.12,9.86a49.45,49.45,0,0,0-5-7.31v17L24.76,29.2v6.27H23.23V28.74l6.35-9.65V.9C29,.31,28.43,0,28.1,0a29.46,29.46,0,0,0-3.34.54V19.25l-6.55,10v6.27H16.68V28.74l6.55-9.95V1a25.59,25.59,0,0,0-5,2V17.5l-6.35,9.66v8.31H10.32V26.7L16.68,17V3.87C5.48,10.87,0,26.18,0,42.87c0,21.61,9.15,41,28.1,42.86,1.38.14,6-6.07,8-9.86ZM6,46.52A3.53,3.53,0,0,1,4.5,45.09,4.56,4.56,0,0,1,4,42.8a4.23,4.23,0,0,1,.55-2.22A3.63,3.63,0,0,1,6,39.17a5,5,0,0,1,2.19-.47,7.25,7.25,0,0,1,2.73.56l0,0v0l-.62,1.29h0a5,5,0,0,0-2.1-.49,2.86,2.86,0,0,0-2,.69,2.59,2.59,0,0,0-.76,2,2.71,2.71,0,0,0,.8,2.11,3,3,0,0,0,2.09.71,4.58,4.58,0,0,0,2-.5l0,0v0L11,46.35l0,0A6.26,6.26,0,0,1,8.24,47,4.94,4.94,0,0,1,6,46.52ZM11.09,58a2,2,0,0,1-.77-3.93V50.42h1.54v3.64A2,2,0,0,1,11.09,58Zm6.36,9.41a2,2,0,0,1-.77-3.92V50.42h1.53V63.48a2,2,0,0,1-.76,3.92Zm1.37-20.58v0l-.89-2a3.6,3.6,0,0,0-.42-.72,1,1,0,0,0-.39-.32,1.53,1.53,0,0,0-.58-.09H15.46v3.11H14V38.88h2.93a3,3,0,0,1,1.94.57,2,2,0,0,1,.68,1.61,2.26,2.26,0,0,1-.33,1.23,2.09,2.09,0,0,1-.87.76,1.34,1.34,0,0,1,.42.37,4.53,4.53,0,0,1,.46.81l1.27,2.59ZM24,78.05a2,2,0,0,1-.76-3.93V50.42h1.53v23.7A2,2,0,0,1,24,78.05Zm7.42-31.23H30V40.76l-2.05,6.06H26.42v0l-2.06-6v6.07H23V38.88h2.2v0l2,6.19,2-6.22h2.19Z"/><path class="cls-1" d="M16.77,40.13H15.46v2.29h1.26a1.4,1.4,0,0,0,1-.32,1.21,1.21,0,0,0,.34-.91,1,1,0,0,0-.32-.78A1.41,1.41,0,0,0,16.77,40.13Z"/><path class="cls-1" d="M54.33,42.07a1,1,0,0,0,.38-.81.84.84,0,0,0-.3-.72,1.59,1.59,0,0,0-.94-.23H52.34v2h.92A1.75,1.75,0,0,0,54.33,42.07Z"/><path class="cls-1" d="M58.2,3.86V23.77l6.35,9.65v2H63V33.88l-6.36-9.65V2.94A25.5,25.5,0,0,0,51.84,1V27.89l5,7.58H55l-4.68-7.12V.58A27.93,27.93,0,0,0,46.8,0c-.31,0-.78.27-1.34.77V27.89l5,7.58H48.62l-4.69-7.12v-26a48.79,48.79,0,0,0-5.15,7.49v66c2,3.8,6.64,10,8,9.86,19-1.88,28.1-21.25,28.1-42.86C74.9,26.17,69.41,10.85,58.2,3.86ZM51.05,62.49a2,2,0,0,1-.76-3.92V50.42h1.53v8.15a2,2,0,0,1-.77,3.92ZM50.84,47V39.06h2.64a3.46,3.46,0,0,1,2,.5A1.69,1.69,0,0,1,56.19,41a1.74,1.74,0,0,1-1.12,1.71,2.07,2.07,0,0,1,1,.68,2,2,0,0,1,.36,1.24,2.15,2.15,0,0,1-.72,1.74,3.29,3.29,0,0,1-2.14.6Zm6.59,25.54a2,2,0,0,1-.77-3.92V50.42H58.2v18.2a2,2,0,0,1-.77,3.92ZM61.54,47H60V39.06h1.5Zm2.25,12.08A2,2,0,0,1,63,55.16V50.42h1.53v4.74a2,2,0,0,1-.76,3.92Z"/><path class="cls-1" d="M53.5,43.61H52.34v2.14h1.28a1.57,1.57,0,0,0,1-.29,1,1,0,0,0,.35-.83.86.86,0,0,0-.36-.77A2,2,0,0,0,53.5,43.61Z"/></svg>